<svg xmlns="http://www.w3.org/2000/svg" width="256" height="256" viewBox="0 0 100 100"><rect width="100" height="100" rx="50" fill="#7d6ee7"></rect><path fill="#ffffff" d="M22.04 47.53L22.04 47.53L22.04 47.88Q22.04 48.72 23.75 48.72L23.75 48.72L25.81 48.72Q29.10 48.72 31.48 46.56Q33.85 44.40 33.85 40.97L33.85 40.97L33.85 40.52Q33.85 38.28 32.31 36.88Q30.77 35.48 28.10 35.48L28.10 35.48L26.57 35.48Q24.52 35.48 23.99 36.88L23.99 36.88Q23.94 37.01 22.99 42.08Q22.04 47.14 22.04 47.53ZM26.99 31.98L28.76 31.98Q36.75 31.98 39.31 36.33L39.31 36.33Q40.31 38.07 40.31 40.36L40.31 40.36Q40.28 46.22 34.48 50.07L34.48 50.07Q32.00 51.70 32.00 52.62Q32.00 53.55 32.82 55.31L32.82 55.31Q35.38 61.01 35.75 61.59L35.75 61.59Q36.62 62.93 38.74 63.95Q40.86 64.96 40.86 66.12Q40.86 67.28 39.44 67.63L39.44 67.63Q38.41 67.86 34.32 67.86L34.32 67.86Q32.45 67.86 31.29 66.27Q30.13 64.67 29.24 62.50Q28.34 60.32 27.28 57.54Q26.23 54.76 25.99 54.28L25.99 54.28Q25.04 52.41 22.91 52.41L22.91 52.41Q21.56 52.41 21.19 53.18L21.19 53.18Q19.77 56.02 19.77 60.69L19.77 60.69Q19.77 62.25 20.30 63.32Q20.82 64.38 21.48 65.29Q22.14 66.20 22.14 66.86L22.14 66.86Q22.14 67.94 15.10 67.94L15.10 67.94L11.62 68.00L10.70 68.02L9.88 68.02Q8.80 68.02 8.80 67.44L8.80 67.44Q8.80 66.10 10.84 64.61Q12.89 63.12 13.18 61.87Q13.47 60.61 15.30 49.80Q17.13 38.99 17.13 37.78Q17.13 36.57 16.42 35.77L16.42 35.77Q16.29 35.64 15.38 34.93Q14.47 34.22 14.47 33.67L14.47 33.67Q14.47 32.61 15.89 32.29L15.89 32.29Q16.61 32.14 20.14 32.14L20.14 32.14L26.99 31.98ZM82.66 67.81L82.66 67.81L79.62 67.81Q74.27 67.81 74.27 66.84L74.27 66.84Q74.27 66.12 75.22 64.99L75.22 64.99L76.85 62.99Q77.96 61.22 78.46 58.75Q78.96 56.29 79.82 49.82Q80.68 43.34 80.68 42.66L80.68 42.66L80.60 41.97L79.70 42.79L78.96 43.92Q77.91 45.56 76.62 47.75L76.62 47.75L74.24 51.73Q67.55 62.88 67.02 63.59L67.02 63.59Q65.65 65.41 63.88 65.41L63.88 65.41Q63.12 65.41 62.30 63.72L62.30 63.72L61.85 62.35L61.46 60.90Q61.14 59.69 60.67 58.00L60.67 58.00L59.87 55.05Q56.66 43.00 55.50 43.00L55.50 43.00L55.15 43.98Q54.97 44.66 53.68 50.98Q52.39 57.29 52.39 59.91Q52.39 62.54 52.70 63.46L52.70 63.46Q53.49 65.78 53.49 66.20L53.49 66.20L53.34 66.91Q52.62 67.81 49.51 67.81Q46.40 67.81 45.03 67.53Q43.66 67.26 43.66 66.20L43.66 66.20Q43.66 65.65 45.43 63.83Q47.19 62.01 47.69 60.36Q48.19 58.71 49.96 49.53Q51.73 40.34 51.73 39.32Q51.73 38.31 51.31 36.99L51.31 36.99L50.94 35.91L50.09 33.90Q50.09 33.06 50.62 32.74L50.62 32.74Q51.83 32.03 52.68 32.03L52.68 32.03L54.18 32.03Q56.42 32.03 58.21 32.94Q60.01 33.85 61.03 35.38L61.03 35.38Q61.35 35.85 63.94 45.24L63.94 45.24L66.33 54.34L66.84 55.42Q67.76 55.42 73.47 45.78Q79.18 36.14 80.31 34.93L80.31 34.93Q83.00 32.08 86.54 32.08Q90.09 32.08 90.94 32.95L90.94 32.95L91.20 33.59Q91.20 34.01 89.87 34.89Q88.54 35.77 88.09 37.12L88.09 37.12Q87.30 39.57 85.93 49.76Q84.55 59.95 84.55 60.90Q84.55 61.85 85.08 63.54L85.08 63.54L85.48 64.59L86.00 65.33L86.51 65.91Q86.51 67.81 82.66 67.81Z"></path></svg>